<svg version="1.1" id="Layer_1" xmlns="http://www.w3.org/2000/svg" xmlns:xlink="http://www.w3.org/1999/xlink" x="0px" y="0px"
	 width="100%" viewBox="0 0 813 892" enable-background="new 0 0 813 892" xml:space="preserve">
<path fill="rgba(255,255,255,0)" opacity="1.000000" stroke="none" 
	d="
M465.000000,893.000000 
	C310.000061,893.000000 155.500092,893.000000 1.000104,893.000000 
	C1.000069,595.666809 1.000069,298.333588 1.000035,1.000303 
	C271.999786,1.000202 542.999573,1.000202 813.999512,1.000101 
	C813.999634,298.333038 813.999634,595.666077 813.999817,892.999512 
	C697.833313,893.000000 581.666687,893.000000 465.000000,893.000000 
M326.538879,111.502007 
	C326.626862,111.657928 326.714813,111.813858 326.551147,112.882202 
	C326.517761,134.193695 326.484344,155.505173 325.936920,176.792343 
	C325.612823,176.904175 325.288696,177.016006 324.207092,176.871460 
	C275.969482,176.863632 227.731888,176.853867 179.494278,176.859634 
	C178.343353,176.859772 177.192444,177.033508 175.372574,176.946060 
	C174.918900,177.006958 174.465240,177.067856 173.500290,176.921661 
	C173.329666,176.990173 173.159042,177.058701 172.172028,176.955154 
	C171.556030,178.556519 170.401077,180.157684 170.400482,181.759277 
	C170.330475,367.987030 170.346176,554.214783 170.357208,740.442566 
	C170.357300,742.044678 170.357224,743.646790 170.357224,745.727905 
	C172.814575,745.727905 174.614792,745.727783 176.415009,745.727905 
	C204.565720,745.729492 232.716461,745.709961 260.867157,745.739380 
	C283.683777,745.763245 306.500305,745.846130 329.219177,746.470215 
	C329.419708,747.000793 329.620239,747.531372 329.559204,748.960205 
	C329.559204,770.900757 329.559204,792.841370 329.559204,814.853699 
	C338.396698,814.853699 346.816132,814.853699 355.619019,814.853699 
	C355.619019,791.781311 355.619019,768.999573 355.619019,746.109009 
	C391.691284,746.109009 427.374084,746.109009 463.482666,746.109009 
	C463.482666,769.275391 463.482666,792.047607 463.482666,814.794373 
	C472.316986,814.794373 480.719086,814.794373 489.487305,814.794373 
	C489.487305,791.347778 489.487305,768.244812 489.487305,744.891296 
	C491.978577,744.682129 494.120148,744.497742 496.262512,744.323120 
	C526.968262,741.820312 557.018433,736.254578 585.429260,723.926270 
	C644.707886,698.203491 678.866333,654.481873 681.323242,588.497131 
	C682.174622,565.634216 679.402405,543.263855 670.512512,521.961487 
	C659.163940,494.767670 639.621033,474.853607 614.652283,459.951080 
	C607.007690,455.388428 598.988281,451.453796 590.694885,446.991791 
	C592.766785,445.546387 594.473145,444.307373 596.226868,443.139465 
	C651.309387,406.457520 665.813904,347.590759 653.252075,291.067993 
	C644.353638,251.029129 619.070984,222.896011 583.897034,203.250122 
	C553.582886,186.318649 520.383911,179.902313 486.334564,177.306656 
	C486.334564,177.306656 486.025085,177.029282 486.221680,176.105118 
	C486.221680,153.161621 486.221680,130.218124 486.221680,107.184280 
	C477.452759,107.184280 468.906708,107.184280 460.264435,107.184280 
	C460.264435,111.717667 460.280975,115.877739 460.261566,120.037643 
	C460.173157,139.007904 460.074646,157.978104 459.173584,176.932297 
	C458.105835,176.994858 457.038116,177.057404 455.208466,176.875076 
	C422.719482,176.866196 390.230438,176.878311 357.741669,176.793259 
	C355.906006,176.788452 354.072418,175.985443 352.436249,174.692215 
	C352.436249,152.168381 352.436249,129.644562 352.436249,107.052063 
	C343.913788,107.052063 335.957733,107.052063 327.329651,106.936554 
	C327.150024,107.286751 326.970398,107.636955 326.535980,108.727417 
	C326.623413,109.495522 326.710876,110.263618 326.538879,111.502007 
z"/>
<path fill="#050503" opacity="1.000000" stroke="none" 
	d="
M486.152679,177.680344 
	C520.383911,179.902313 553.582886,186.318649 583.897034,203.250122 
	C619.070984,222.896011 644.353638,251.029129 653.252075,291.067993 
	C665.813904,347.590759 651.309387,406.457520 596.226868,443.139465 
	C594.473145,444.307373 592.766785,445.546387 590.694885,446.991791 
	C598.988281,451.453796 607.007690,455.388428 614.652283,459.951080 
	C639.621033,474.853607 659.163940,494.767670 670.512512,521.961487 
	C679.402405,543.263855 682.174622,565.634216 681.323242,588.497131 
	C678.866333,654.481873 644.707886,698.203491 585.429260,723.926270 
	C557.018433,736.254578 526.968262,741.820312 496.262512,744.323120 
	C494.120148,744.497742 491.978577,744.682129 489.487305,744.891296 
	C489.487305,768.244812 489.487305,791.347778 489.487305,814.794373 
	C480.719086,814.794373 472.316986,814.794373 463.482666,814.794373 
	C463.482666,792.047607 463.482666,769.275391 463.482666,746.109009 
	C427.374084,746.109009 391.691284,746.109009 355.619019,746.109009 
	C355.619019,768.999573 355.619019,791.781311 355.619019,814.853699 
	C346.816132,814.853699 338.396698,814.853699 329.559204,814.853699 
	C329.559204,792.841370 329.559204,770.900757 329.939331,748.377197 
	C329.985291,747.163696 329.651093,746.533264 329.316895,745.902832 
	C306.500305,745.846130 283.683777,745.763245 260.867157,745.739380 
	C232.716461,745.709961 204.565720,745.729492 176.415009,745.727905 
	C174.614792,745.727783 172.814575,745.727905 170.357224,745.727905 
	C170.357224,743.646790 170.357300,742.044678 170.357208,740.442566 
	C170.346176,554.214783 170.330475,367.987030 170.400482,181.759277 
	C170.401077,180.157684 171.556030,178.556519 172.590027,177.286697 
	C173.172958,177.872604 173.337906,178.126968 173.502838,178.381332 
	C173.672409,177.963806 173.841995,177.546280 174.011566,177.128754 
	C174.465240,177.067856 174.918900,177.006958 176.010834,177.315582 
	C177.631363,177.793274 178.613602,177.995773 179.595886,177.996094 
	C226.642899,178.011581 273.689911,178.017273 320.736908,177.972610 
	C322.146393,177.971268 323.555389,177.421768 324.964600,177.127853 
	C325.288696,177.016006 325.612823,176.904175 326.560852,176.856628 
	C327.430389,176.946930 327.676025,176.972931 328.226257,177.296432 
	C329.672974,177.732452 330.815063,177.991516 331.957245,177.992111 
	C371.885712,178.012985 411.814148,178.018646 451.742584,177.972092 
	C453.152161,177.970444 454.561127,177.416504 455.970367,177.119965 
	C457.038116,177.057404 458.105835,176.994858 459.856201,177.253723 
	C462.665009,177.721085 464.790039,177.967834 466.917694,177.992722 
	C471.943756,178.051498 476.971039,178.004730 482.415436,177.952881 
	C483.939575,177.830185 485.046143,177.755264 486.152679,177.680344 
M375.499542,594.354614 
	C413.778778,594.354614 452.058014,594.354614 490.833710,594.354614 
	C490.833710,592.202393 490.833710,590.578308 490.833710,588.954163 
	C490.833679,573.291565 490.763855,557.628479 490.857025,541.966431 
	C490.924591,530.609436 487.579559,520.377502 481.471558,510.887543 
	C472.272644,496.595154 459.092377,486.378143 446.068756,475.996765 
	C433.238098,465.769104 433.092163,450.974915 445.620239,440.344391 
	C453.618134,433.557922 461.664276,426.791504 469.218964,419.527527 
	C483.647705,405.653961 492.176849,389.239960 490.958313,368.435699 
	C490.267792,356.645874 490.844086,344.782410 490.820129,332.952209 
	C490.817230,331.511200 490.629456,330.070587 490.523529,328.575928 
	C435.936615,328.575928 381.738495,328.575928 326.895630,328.575928 
	C326.895630,343.278076 327.060028,357.582977 326.850525,371.882385 
	C326.630005,386.937836 331.254608,400.395691 341.419006,411.203247 
	C351.308044,421.717987 362.236237,431.291168 373.057831,440.883301 
	C384.296783,450.845337 384.301758,466.021362 372.696899,475.353394 
	C366.338531,480.466431 359.938171,485.550507 353.871338,490.998047 
	C340.601105,502.913544 328.841187,516.398071 327.640869,534.934998 
	C326.375122,554.482300 327.357147,574.175171 327.357147,594.354553 
	C342.930908,594.354553 358.715210,594.354553 375.499542,594.354614 
z"/>
<path fill="#171715" opacity="1.000000" stroke="none" 
	d="
M481.997833,178.000641 
	C476.971039,178.004730 471.943756,178.051498 466.917694,177.992722 
	C464.790039,177.967834 462.665009,177.721085 460.259277,177.261749 
	C460.074646,157.978104 460.173157,139.007904 460.261566,120.037643 
	C460.280975,115.877739 460.264435,111.717667 460.264435,107.184280 
	C468.906708,107.184280 477.452759,107.184280 486.221680,107.184280 
	C486.221680,130.218124 486.221680,153.161621 485.747772,176.511963 
	C484.181854,177.279419 483.089844,177.640030 481.997833,178.000641 
z"/>
<path fill="#040402" opacity="1.000000" stroke="none" 
	d="
M327.921692,176.998932 
	C327.676025,176.972931 327.430389,176.946930 326.817871,176.868790 
	C326.484344,155.505173 326.517761,134.193695 326.947632,112.422592 
	C327.599304,111.847878 327.854492,111.732773 328.109650,111.617668 
	C327.672546,111.422356 327.235413,111.227043 326.798309,111.031723 
	C326.710876,110.263618 326.623413,109.495522 326.919495,108.283432 
	C327.535858,107.576981 327.768768,107.314522 328.001648,107.052063 
	C335.957733,107.052063 343.913788,107.052063 352.436249,107.052063 
	C352.436249,129.644562 352.436249,152.168381 352.086548,175.399582 
	C351.268463,176.148254 350.800842,176.211227 350.331604,176.227600 
	C342.861786,176.488235 335.391693,176.742905 327.921692,176.998932 
z"/>
<path fill="#171715" opacity="1.000000" stroke="none" 
	d="
M324.585846,176.999664 
	C323.555389,177.421768 322.146393,177.971268 320.736908,177.972610 
	C273.689911,178.017273 226.642899,178.011581 179.595886,177.996094 
	C178.613602,177.995773 177.631363,177.793274 176.345322,177.405670 
	C177.192444,177.033508 178.343353,176.859772 179.494278,176.859634 
	C227.731888,176.853867 275.969482,176.863632 324.585846,176.999664 
z"/>
<path fill="#171715" opacity="1.000000" stroke="none" 
	d="
M328.226257,177.296417 
	C335.391693,176.742905 342.861786,176.488235 350.331604,176.227600 
	C350.800842,176.211227 351.268463,176.148254 351.987366,175.830444 
	C354.072418,175.985443 355.906006,176.788452 357.741669,176.793259 
	C390.230438,176.878311 422.719482,176.866196 455.589417,176.997528 
	C454.561127,177.416504 453.152161,177.970444 451.742584,177.972092 
	C411.814148,178.018646 371.885712,178.012985 331.957245,177.992111 
	C330.815063,177.991516 329.672974,177.732452 328.226257,177.296417 
z"/>
<path fill="#A2A2A2" opacity="1.000000" stroke="none" 
	d="
M482.415436,177.952881 
	C483.089844,177.640030 484.181854,177.279419 485.649475,176.974030 
	C486.025085,177.029282 486.334564,177.306656 486.243622,177.493500 
	C485.046143,177.755264 483.939575,177.830185 482.415436,177.952881 
z"/>
<path fill="#171715" opacity="1.000000" stroke="none" 
	d="
M329.268036,746.186523 
	C329.651093,746.533264 329.985291,747.163696 330.070129,747.928040 
	C329.620239,747.531372 329.419708,747.000793 329.268036,746.186523 
z"/>
<path fill="#171715" opacity="1.000000" stroke="none" 
	d="
M326.668579,111.266869 
	C327.235413,111.227043 327.672546,111.422356 328.109650,111.617668 
	C327.854492,111.732773 327.599304,111.847878 327.073486,111.966385 
	C326.714813,111.813858 326.626862,111.657928 326.668579,111.266869 
z"/>
<path fill="#171715" opacity="1.000000" stroke="none" 
	d="
M173.755920,177.025208 
	C173.841995,177.546280 173.672409,177.963806 173.502838,178.381332 
	C173.337906,178.126968 173.172958,177.872604 172.998215,177.372742 
	C173.159042,177.058701 173.329666,176.990173 173.755920,177.025208 
z"/>
<path fill="#171715" opacity="1.000000" stroke="none" 
	d="
M327.665649,106.994308 
	C327.768768,107.314522 327.535858,107.576981 327.046875,107.913300 
	C326.970398,107.636955 327.150024,107.286751 327.665649,106.994308 
z"/>
<path fill="#FBFBFB" opacity="1.000000" stroke="none" 
	d="
M374.999512,594.354614 
	C358.715210,594.354553 342.930908,594.354553 327.357147,594.354553 
	C327.357147,574.175171 326.375122,554.482300 327.640869,534.934998 
	C328.841187,516.398071 340.601105,502.913544 353.871338,490.998047 
	C359.938171,485.550507 366.338531,480.466431 372.696899,475.353394 
	C384.301758,466.021362 384.296783,450.845337 373.057831,440.883301 
	C362.236237,431.291168 351.308044,421.717987 341.419006,411.203247 
	C331.254608,400.395691 326.630005,386.937836 326.850525,371.882385 
	C327.060028,357.582977 326.895630,343.278076 326.895630,328.575928 
	C381.738495,328.575928 435.936615,328.575928 490.523529,328.575928 
	C490.629456,330.070587 490.817230,331.511200 490.820129,332.952209 
	C490.844086,344.782410 490.267792,356.645874 490.958313,368.435699 
	C492.176849,389.239960 483.647705,405.653961 469.218964,419.527527 
	C461.664276,426.791504 453.618134,433.557922 445.620239,440.344391 
	C433.092163,450.974915 433.238098,465.769104 446.068756,475.996765 
	C459.092377,486.378143 472.272644,496.595154 481.471558,510.887543 
	C487.579559,520.377502 490.924591,530.609436 490.857025,541.966431 
	C490.763855,557.628479 490.833679,573.291565 490.833710,588.954163 
	C490.833710,590.578308 490.833710,592.202393 490.833710,594.354614 
	C452.058014,594.354614 413.778778,594.354614 374.999512,594.354614 
M432.594025,497.915985 
	C422.680115,490.841187 415.237427,481.983551 412.008545,469.945587 
	C411.741425,468.949799 409.938873,467.588531 409.054169,467.724762 
	C407.840973,467.911560 406.154572,469.174988 405.825623,470.311310 
	C402.636108,481.329010 395.900238,489.551270 387.071838,496.691010 
	C378.165833,503.893524 369.562561,511.579529 361.574646,519.782104 
	C350.117065,531.547546 352.160217,546.508972 352.763641,561.629578 
	C366.730591,556.176208 380.033295,550.936646 393.371460,545.788879 
	C403.758972,541.779968 414.203522,541.794861 424.591003,545.806702 
	C434.999512,549.826721 445.366669,553.953552 455.765961,557.997498 
	C458.763763,559.163269 461.810120,560.204041 465.414276,561.512695 
	C465.414276,555.379272 465.239655,550.066101 465.452026,544.768433 
	C465.848083,534.888550 462.682068,526.204895 455.902527,519.286133 
	C448.699646,511.935333 440.764648,505.301880 432.594025,497.915985 
M358.993774,392.495544 
	C360.866547,394.947693 362.197906,397.611877 366.239227,397.585785 
	C394.693787,397.401978 423.150360,397.526672 451.604828,397.334473 
	C453.550903,397.321350 456.003387,396.001129 457.342834,394.503815 
	C468.082703,382.498047 465.286743,367.990417 465.164886,354.060303 
	C427.284760,354.060303 390.080353,354.060303 352.437805,354.060303 
	C352.437805,360.164490 352.551422,365.961365 352.409393,371.752014 
	C352.227020,379.186615 354.306885,385.856903 358.993774,392.495544 
z"/>
<path fill="#080806" opacity="1.000000" stroke="none" 
	d="
M432.871704,498.135590 
	C440.764648,505.301880 448.699646,511.935333 455.902527,519.286133 
	C462.682068,526.204895 465.848083,534.888550 465.452026,544.768433 
	C465.239655,550.066101 465.414276,555.379272 465.414276,561.512695 
	C461.810120,560.204041 458.763763,559.163269 455.765961,557.997498 
	C445.366669,553.953552 434.999512,549.826721 424.591003,545.806702 
	C414.203522,541.794861 403.758972,541.779968 393.371460,545.788879 
	C380.033295,550.936646 366.730591,556.176208 352.763641,561.629578 
	C352.160217,546.508972 350.117065,531.547546 361.574646,519.782104 
	C369.562561,511.579529 378.165833,503.893524 387.071838,496.691010 
	C395.900238,489.551270 402.636108,481.329010 405.825623,470.311310 
	C406.154572,469.174988 407.840973,467.911560 409.054169,467.724762 
	C409.938873,467.588531 411.741425,468.949799 412.008545,469.945587 
	C415.237427,481.983551 422.680115,490.841187 432.871704,498.135590 
z"/>
<path fill="#080806" opacity="1.000000" stroke="none" 
	d="
M358.810455,392.181366 
	C354.306885,385.856903 352.227020,379.186615 352.409393,371.752014 
	C352.551422,365.961365 352.437805,360.164490 352.437805,354.060303 
	C390.080353,354.060303 427.284760,354.060303 465.164886,354.060303 
	C465.286743,367.990417 468.082703,382.498047 457.342834,394.503815 
	C456.003387,396.001129 453.550903,397.321350 451.604828,397.334473 
	C423.150360,397.526672 394.693787,397.401978 366.239227,397.585785 
	C362.197906,397.611877 360.866547,394.947693 358.810455,392.181366 
z"/>
</svg>